# xmcd
#
# Track frame offsets:
# 150
# 16346
# 35710
# 47273
# 61846
# 80018
# 91749
# 105807
# 122532
# 133309
# 145864
#
# Disc length: 2109 seconds
#
# Revision: 0
# Processed by: cddbd v1.5.2PL0 Copyright (c) Steve Scherf et al.
# Submitted via: Audion 3.0.2 (http://www.panic.com/audion/)
#
DISCID=84083b0b
DTITLE=Amy Winehouse - Back to Black
DYEAR=1900
DGENRE=
TTITLE0=Rehab
TTITLE1=You know I'm no good
TTITLE2=Me and Mr Jones
TTITLE3=Just friends
TTITLE4=Back to black
TTITLE5=Love is a loosing game
TTITLE6=Tears dry on their own
TTITLE7=Wake up alone
TTITLE8=Some unholy war
TTITLE9=He can only hold her
TTITLE10=Addicted
EXTD=
EXTT0=
EXTT1=
EXTT2=
EXTT3=
EXTT4=
EXTT5=
EXTT6=
EXTT7=
EXTT8=
EXTT9=
EXTT10=
PLAYORDER=
